<?xml version="1.0" encoding="UTF-8"?>
<!DOCTYPE svg PUBLIC "-//W3C//DTD SVG 1.1//EN" "http://www.w3.org/Graphics/SVG/1.1/DTD/svg11.dtd">
<svg xmlns="http://www.w3.org/2000/svg" version="1.1" width="1918px" height="968px" style="shape-rendering:geometricPrecision; text-rendering:geometricPrecision; image-rendering:optimizeQuality; fill-rule:evenodd; clip-rule:evenodd" xmlns:xlink="http://www.w3.org/1999/xlink">
<g><path style="opacity:1" fill="#2a2c35" d="M -0.5,-0.5 C 638.833,-0.5 1278.17,-0.5 1917.5,-0.5C 1917.5,298.167 1917.5,596.833 1917.5,895.5C 1278.17,895.5 638.833,895.5 -0.5,895.5C -0.5,596.833 -0.5,298.167 -0.5,-0.5 Z"/></g>
<g><path style="opacity:1" fill="#2a1610" d="M 1873.5,18.5 C 1876.4,23.0829 1875.56,24.0829 1871,21.5C 1869.3,21.3866 1868.13,22.0532 1867.5,23.5C 1866.88,23.6107 1866.38,23.944 1866,24.5C 1865.67,19.0009 1868.17,17.0009 1873.5,18.5 Z"/></g>
<g><path style="opacity:1" fill="#6e3b21" d="M 1874.5,17.5 C 1873.83,17.5 1873.5,17.8333 1873.5,18.5C 1868.17,17.0009 1865.67,19.0009 1866,24.5C 1866.38,23.944 1866.88,23.6107 1867.5,23.5C 1867.18,24.8175 1866.85,26.1508 1866.5,27.5C 1867.55,29.0564 1868.21,30.7231 1868.5,32.5C 1870.56,32.5172 1872.56,32.8505 1874.5,33.5C 1872.19,36.1604 1869.69,36.1604 1867,33.5C 1863.64,33.9094 1861.81,35.7427 1861.5,39C 1862.32,42.1406 1862.99,45.3073 1863.5,48.5C 1862.95,50.6264 1862.29,52.6264 1861.5,54.5C 1853.98,50.9595 1849.98,44.9595 1849.5,36.5C 1851.59,21.6469 1859.92,15.3136 1874.5,17.5 Z"/></g>
<g><path style="opacity:1" fill="#e6e7e8" d="M 1797.5,25.5 C 1798.94,30.2618 1797.27,31.5951 1792.5,29.5C 1792.38,26.0897 1794.05,24.7564 1797.5,25.5 Z"/></g>
<g><path style="opacity:1" fill="#e0e0e1" d="M 1817.5,29.5 C 1813.88,31.4436 1811.88,30.4436 1811.5,26.5C 1812.95,25.3871 1814.61,25.2204 1816.5,26C 1817.34,27.0113 1817.67,28.1779 1817.5,29.5 Z"/></g>
<g><path style="opacity:1" fill="#8d4d2f" d="M 1874.5,17.5 C 1882.17,19.1667 1886.83,23.8333 1888.5,31.5C 1884.7,32.4834 1880.7,32.8168 1876.5,32.5C 1875.51,32.3284 1874.84,32.6618 1874.5,33.5C 1872.56,32.8505 1870.56,32.5172 1868.5,32.5C 1868.21,30.7231 1867.55,29.0564 1866.5,27.5C 1866.85,26.1508 1867.18,24.8175 1867.5,23.5C 1868.13,22.0532 1869.3,21.3866 1871,21.5C 1875.56,24.0829 1876.4,23.0829 1873.5,18.5C 1873.5,17.8333 1873.83,17.5 1874.5,17.5 Z"/></g>
<g><path style="opacity:1" fill="#ceccbc" d="M 1620.5,33.5 C 1621.5,33.5 1622.5,33.5 1623.5,33.5C 1623.5,37.5 1623.5,41.5 1623.5,45.5C 1622.5,45.5 1621.5,45.5 1620.5,45.5C 1620.5,41.5 1620.5,37.5 1620.5,33.5 Z"/></g>
<g><path style="opacity:1" fill="#ceccbc" d="M 1673.5,33.5 C 1674.5,33.5 1675.5,33.5 1676.5,33.5C 1676.5,37.5 1676.5,41.5 1676.5,45.5C 1675.5,45.5 1674.5,45.5 1673.5,45.5C 1673.5,41.5 1673.5,37.5 1673.5,33.5 Z"/></g>
<g><path style="opacity:1" fill="#eedab4" d="M 1695.5,34.5 C 1696.79,35.8714 1697.45,37.7047 1697.5,40C 1697.17,41.8333 1696.83,43.6667 1696.5,45.5C 1695.51,41.8927 1695.18,38.226 1695.5,34.5 Z"/></g>
<g><path style="opacity:1" fill="#cbcbc1" d="M 1612.5,34.5 C 1614.86,34.3367 1617.19,34.5034 1619.5,35C 1618.21,35.49 1616.87,35.6567 1615.5,35.5C 1615.5,36.5 1615.5,37.5 1615.5,38.5C 1620.83,39.1667 1620.83,39.8333 1615.5,40.5C 1615.5,42.1667 1615.5,43.8333 1615.5,45.5C 1614.5,45.5 1613.5,45.5 1612.5,45.5C 1612.5,41.8333 1612.5,38.1667 1612.5,34.5 Z"/></g>
<g><path style="opacity:1" fill="#d3d2cf" d="M 64.5,36.5 C 71.9974,35.8038 73.9974,38.6372 70.5,45C 62.749,46.0913 60.749,43.258 64.5,36.5 Z"/></g>
<g><path style="opacity:1" fill="#d3d2cf" d="M 1636.5,36.5 C 1644,35.8038 1646,38.6372 1642.5,45C 1634.75,46.0913 1632.75,43.258 1636.5,36.5 Z"/></g>
<g><path style="opacity:1" fill="#e6e7e8" d="M 1792.5,37.5 C 1792.5,36.5 1792.5,35.5 1792.5,34.5C 1796.91,32.4664 1798.57,33.6331 1797.5,38C 1795.73,38.6397 1794.07,38.4731 1792.5,37.5 Z"/></g>
<g><path style="opacity:1" fill="#dfdfe1" d="M 1817.5,34.5 C 1817.5,35.5 1817.5,36.5 1817.5,37.5C 1815.62,38.3414 1813.62,38.6747 1811.5,38.5C 1811.5,36.8333 1811.5,35.1667 1811.5,33.5C 1813.62,33.3253 1815.62,33.6586 1817.5,34.5 Z"/></g>
<g><path style="opacity:1" fill="#e9dfc8" d="M 155.5,38.5 C 154.5,38.5 153.5,38.5 152.5,38.5C 152.808,40.924 152.474,43.2573 151.5,45.5C 150.516,42.5719 150.183,39.5719 150.5,36.5C 152.781,36.0773 154.448,36.744 155.5,38.5 Z"/></g>
<g><path style="opacity:1" fill="#cecbbc" d="M 1669.5,36.5 C 1670.5,36.5 1671.5,36.5 1672.5,36.5C 1672.5,39.5 1672.5,42.5 1672.5,45.5C 1671.5,45.5 1670.5,45.5 1669.5,45.5C 1669.5,42.5 1669.5,39.5 1669.5,36.5 Z"/></g>
<g><path style="opacity:1" fill="#dcded7" d="M 1699.5,36.5 C 1703.99,36.9445 1708.32,37.1111 1712.5,37C 1714.31,39.4815 1714.98,42.3148 1714.5,45.5C 1713.5,45.5 1712.5,45.5 1711.5,45.5C 1711.5,43.1667 1711.5,40.8333 1711.5,38.5C 1710.17,38.5 1708.83,38.5 1707.5,38.5C 1706.83,47.8333 1706.17,47.8333 1705.5,38.5C 1704.17,38.5 1702.83,38.5 1701.5,38.5C 1701.81,40.924 1701.47,43.2573 1700.5,45.5C 1699.52,42.5719 1699.18,39.5719 1699.5,36.5 Z"/></g>
<g><path style="opacity:1" fill="#dfddd7" d="M 1717.5,36.5 C 1719.83,36.5 1722.17,36.5 1724.5,36.5C 1724.5,39.5 1724.5,42.5 1724.5,45.5C 1716.22,46.5846 1713.89,43.5846 1717.5,36.5 Z"/></g>
<g><path style="opacity:1" fill="#281a15" d="M 1876.5,32.5 C 1877.98,34.5 1879.81,36.1666 1882,37.5C 1882.5,40.146 1882.66,42.8127 1882.5,45.5C 1880.02,43.2789 1877.52,40.9456 1875,38.5C 1873.87,40.3453 1873.37,42.3453 1873.5,44.5C 1870.86,42.7581 1867.86,42.0914 1864.5,42.5C 1864.79,44.7354 1864.46,46.7354 1863.5,48.5C 1862.99,45.3073 1862.32,42.1406 1861.5,39C 1861.81,35.7427 1863.64,33.9094 1867,33.5C 1869.69,36.1604 1872.19,36.1604 1874.5,33.5C 1874.84,32.6618 1875.51,32.3284 1876.5,32.5 Z"/></g>
<g><path style="opacity:1" fill="#eae0cd" d="M 52.5,33.5 C 54.0481,33.8212 54.7148,34.8212 54.5,36.5C 60.5536,35.8562 62.7203,38.5229 61,44.5C 58.2809,45.4438 55.4475,45.7771 52.5,45.5C 52.5,41.5 52.5,37.5 52.5,33.5 Z"/></g>
<g><path style="opacity:1" fill="#333745" d="M 55.5,38.5 C 56.8333,38.5 58.1667,38.5 59.5,38.5C 59.9492,40.9775 59.2825,42.9775 57.5,44.5C 54.6095,43.1627 53.9428,41.1627 55.5,38.5 Z"/></g>
<g><path style="opacity:1" fill="#3f3139" d="M 65.5,38.5 C 66.8333,38.5 68.1667,38.5 69.5,38.5C 69.5,40.1667 69.5,41.8333 69.5,43.5C 65.065,44.0776 63.7317,42.4109 65.5,38.5 Z"/></g>
<g><path style="opacity:1" fill="#eae6d6" d="M 84.5,34.5 C 86.0783,35.0656 87.4116,36.0656 88.5,37.5C 85.8954,40.0886 85.8954,42.5886 88.5,45C 87.2068,45.49 85.8734,45.6567 84.5,45.5C 84.086,41.7178 84.086,38.0511 84.5,34.5 Z"/></g>
<g><path style="opacity:1" fill="#e2e6e0" d="M 134.5,34.5 C 136.078,35.0656 137.412,36.0656 138.5,37.5C 135.907,40.0214 135.907,42.5214 138.5,45C 137.216,45.6838 136.049,45.5171 135,44.5C 134.028,41.0867 133.862,37.7534 134.5,34.5 Z"/></g>
<g><path style="opacity:1" fill="#3f3139" d="M 1637.5,38.5 C 1638.83,38.5 1640.17,38.5 1641.5,38.5C 1641.5,40.1667 1641.5,41.8333 1641.5,43.5C 1637.07,44.0776 1635.73,42.4109 1637.5,38.5 Z"/></g>
<g><path style="opacity:1" fill="#2e3041" d="M 1718.5,38.5 C 1719.83,38.5 1721.17,38.5 1722.5,38.5C 1722.5,40.1667 1722.5,41.8333 1722.5,43.5C 1718.07,44.0776 1716.73,42.4109 1718.5,38.5 Z"/></g>
<g><path style="opacity:1" fill="#404149" d="M 1803.5,25.5 C 1804.1,24.8614 1804.93,24.528 1806,24.5C 1807.8,25.3784 1809.63,26.045 1811.5,26.5C 1811.88,30.4436 1813.88,31.4436 1817.5,29.5C 1816.17,31.1667 1816.17,32.8333 1817.5,34.5C 1815.62,33.6586 1813.62,33.3253 1811.5,33.5C 1811.5,35.1667 1811.5,36.8333 1811.5,38.5C 1813.62,38.6747 1815.62,38.3414 1817.5,37.5C 1816.17,39.1667 1816.17,40.8333 1817.5,42.5C 1815.62,41.6586 1813.62,41.3253 1811.5,41.5C 1811.2,46.2602 1813.2,47.5936 1817.5,45.5C 1816.85,46.7251 1815.68,47.3917 1814,47.5C 1810.39,47.1263 1806.89,46.793 1803.5,46.5C 1807.42,47.2536 1808.75,45.9203 1807.5,42.5C 1803.84,40.5623 1801.84,41.5623 1801.5,45.5C 1800.17,45.8333 1798.83,46.1667 1797.5,46.5C 1799.27,42.5891 1797.93,40.9224 1793.5,41.5C 1793.17,40.1667 1792.83,38.8333 1792.5,37.5C 1794.07,38.4731 1795.73,38.6397 1797.5,38C 1798.57,33.6331 1796.91,32.4664 1792.5,34.5C 1793.83,32.8333 1793.83,31.1667 1792.5,29.5C 1797.27,31.5951 1798.94,30.2618 1797.5,25.5C 1799.17,25.5 1800.83,25.5 1802.5,25.5C 1800.82,28.1392 1801.49,29.8058 1804.5,30.5C 1807.4,29.9763 1808.06,28.4763 1806.5,26C 1805.55,25.5172 1804.55,25.3505 1803.5,25.5 Z"/></g>
<g><path style="opacity:1" fill="#d0d0d2" d="M 1802.5,33.5 C 1804.17,33.5 1805.83,33.5 1807.5,33.5C 1807.5,35.1667 1807.5,36.8333 1807.5,38.5C 1802.58,39.585 1800.91,37.9183 1802.5,33.5 Z"/></g>
<g><path style="opacity:1" fill="#e0e0e2" d="M 1802.5,25.5 C 1802.83,25.5 1803.17,25.5 1803.5,25.5C 1804.55,25.3505 1805.55,25.5172 1806.5,26C 1808.06,28.4763 1807.4,29.9763 1804.5,30.5C 1801.49,29.8058 1800.82,28.1392 1802.5,25.5 Z"/></g>
<g><path style="opacity:1" fill="#e5e4df" d="M 125.5,34.5 C 127.792,34.2436 129.959,34.5769 132,35.5C 132.688,36.3317 132.521,36.9984 131.5,37.5C 129.668,35.0428 128.001,35.0428 126.5,37.5C 128.179,38.782 130.013,39.782 132,40.5C 132.72,42.1124 132.554,43.6124 131.5,45C 129.231,45.7581 127.064,45.5914 125,44.5C 124.312,43.6683 124.479,43.0016 125.5,42.5C 127.332,44.9572 128.999,44.9572 130.5,42.5C 128.999,41.2485 127.332,40.2485 125.5,39.5C 124.334,37.8327 124.334,36.166 125.5,34.5 Z"/></g>
<g><path style="opacity:1" fill="#e6e5df" d="M 155.5,38.5 C 157.496,36.6668 159.829,36.1668 162.5,37C 164.107,38.049 164.773,39.549 164.5,41.5C 162.143,41.3367 159.81,41.5034 157.5,42C 159.302,45.0767 161.302,45.2433 163.5,42.5C 164.711,43.2739 164.711,44.1072 163.5,45C 157.669,46.6659 155.002,44.4992 155.5,38.5 Z"/></g>
<g><path style="opacity:1" fill="#2f2f3e" d="M 158.5,38.5 C 159.978,38.238 161.311,38.5713 162.5,39.5C 161.833,39.8333 161.167,40.1667 160.5,40.5C 159.287,40.2528 158.62,39.5862 158.5,38.5 Z"/></g>
<g><path style="opacity:1" fill="#e6e8e6" d="M 1745.5,39.5 C 1743.63,41.0615 1741.29,42.0615 1738.5,42.5C 1740.5,45.1667 1742.5,45.1667 1744.5,42.5C 1745.11,42.6236 1745.44,42.9569 1745.5,43.5C 1745.39,44.1174 1745.06,44.6174 1744.5,45C 1737.68,46.2725 1735.68,43.6058 1738.5,37C 1740.5,36.3333 1742.5,36.3333 1744.5,37C 1745.25,37.6708 1745.59,38.5041 1745.5,39.5 Z"/></g>
<g><path style="opacity:1" fill="#332c3b" d="M 1739.5,38.5 C 1740.98,38.238 1742.31,38.5713 1743.5,39.5C 1742.83,39.8333 1742.17,40.1667 1741.5,40.5C 1740.29,40.2528 1739.62,39.5862 1739.5,38.5 Z"/></g>
<g><path style="opacity:1" fill="#c56762" d="M 1865.5,39.5 C 1867.92,39.1924 1870.26,39.5258 1872.5,40.5C 1871.33,40.8333 1870.17,41.1667 1869,41.5C 1867.32,41.3917 1866.15,40.7251 1865.5,39.5 Z"/></g>
<g><path style="opacity:1" fill="#65361d" d="M 1888.5,31.5 C 1890.96,43.0787 1886.63,51.0787 1875.5,55.5C 1876.09,52.8728 1876.42,50.2062 1876.5,47.5C 1877.4,48.209 1877.74,49.209 1877.5,50.5C 1879.17,50.5 1880.83,50.5 1882.5,50.5C 1882.5,48.8333 1882.5,47.1667 1882.5,45.5C 1882.66,42.8127 1882.5,40.146 1882,37.5C 1879.81,36.1666 1877.98,34.5 1876.5,32.5C 1880.7,32.8168 1884.7,32.4834 1888.5,31.5 Z"/></g>
<g><path style="opacity:1" fill="#dfdbd4" d="M 44.5,34.5 C 45.675,34.281 46.675,34.6143 47.5,35.5C 48.7043,38.7394 50.0376,41.906 51.5,45C 49.6207,45.0632 47.7873,44.5632 46,43.5C 44.2127,44.5632 42.3793,45.0632 40.5,45C 42.0622,41.5821 43.3956,38.0821 44.5,34.5 Z"/></g>
<g><path style="opacity:1" fill="#372e51" d="M 45.5,37.5 C 46.2485,38.531 46.9152,39.6976 47.5,41C 46.5,41.6667 45.5,41.6667 44.5,41C 45.3366,39.9887 45.67,38.8221 45.5,37.5 Z"/></g>
<g><path style="opacity:1" fill="#806b62" d="M 1745.5,39.5 C 1746.83,40.8333 1746.83,42.1667 1745.5,43.5C 1745.44,42.9569 1745.11,42.6236 1744.5,42.5C 1742.5,45.1667 1740.5,45.1667 1738.5,42.5C 1741.29,42.0615 1743.63,41.0615 1745.5,39.5 Z"/></g>
<g><path style="opacity:1" fill="#dadbd6" d="M 141.5,36.5 C 147.842,36.1385 149.842,38.9719 147.5,45C 139.749,46.0913 137.749,43.258 141.5,36.5 Z"/></g>
<g><path style="opacity:1" fill="#35303e" d="M 142.5,38.5 C 143.833,38.5 145.167,38.5 146.5,38.5C 146.5,40.1667 146.5,41.8333 146.5,43.5C 142.065,44.0776 140.732,42.4109 142.5,38.5 Z"/></g>
<g><path style="opacity:1" fill="#dadbd6" d="M 1626.5,36.5 C 1632.84,36.1385 1634.84,38.9719 1632.5,45C 1624.75,46.0913 1622.75,43.258 1626.5,36.5 Z"/></g>
<g><path style="opacity:1" fill="#35303e" d="M 1627.5,38.5 C 1628.83,38.5 1630.17,38.5 1631.5,38.5C 1631.5,40.1667 1631.5,41.8333 1631.5,43.5C 1627.07,44.0776 1625.73,42.4109 1627.5,38.5 Z"/></g>
<g><path style="opacity:1" fill="#e3e0d3" d="M 1645.5,34.5 C 1646.68,34.281 1647.68,34.6143 1648.5,35.5C 1649.19,38.0876 1650.36,40.421 1652,42.5C 1652.16,38.4519 1654,35.7852 1657.5,34.5C 1657.82,38.226 1657.49,41.8927 1656.5,45.5C 1655.69,43.5767 1655.19,41.5767 1655,39.5C 1652.55,47.4348 1650.22,47.4348 1648,39.5C 1647.81,41.5767 1647.31,43.5767 1646.5,45.5C 1645.51,41.8927 1645.18,38.226 1645.5,34.5 Z"/></g>
<g><path style="opacity:1" fill="#e5e5e6" d="M 1793.5,41.5 C 1797.93,40.9224 1799.27,42.5891 1797.5,46.5C 1792.97,46.9949 1791.64,45.3282 1793.5,41.5 Z"/></g>
<g><path style="opacity:1" fill="#e0e0e1" d="M 1817.5,42.5 C 1817.5,43.5 1817.5,44.5 1817.5,45.5C 1813.2,47.5936 1811.2,46.2602 1811.5,41.5C 1813.62,41.3253 1815.62,41.6586 1817.5,42.5 Z"/></g>
<g><path style="opacity:1" fill="#dde9ea" d="M 73.5,36.5 C 74.9327,39.0384 76.266,41.705 77.5,44.5C 78.086,44.2907 78.586,43.9574 79,43.5C 79.1858,41.0995 79.6858,38.7662 80.5,36.5C 81.4841,39.4281 81.8174,42.4281 81.5,45.5C 78.8806,45.7683 76.3806,45.435 74,44.5C 73.5026,41.854 73.3359,39.1873 73.5,36.5 Z"/></g>
<g><path style="opacity:1" fill="#e3dfd1" d="M 1660.5,36.5 C 1663.01,36.838 1665.34,36.838 1667.5,36.5C 1668.83,39.5 1668.83,42.5 1667.5,45.5C 1665.33,45.3241 1663,45.1575 1660.5,45C 1657.9,42.1705 1657.9,39.3371 1660.5,36.5 Z"/></g>
<g><path style="opacity:1" fill="#463a47" d="M 1661.5,38.5 C 1663.96,38.2275 1665.62,39.2275 1666.5,41.5C 1664.21,45.5272 1662.21,45.3606 1660.5,41C 1660.74,40.0979 1661.08,39.2646 1661.5,38.5 Z"/></g>
<g><path style="opacity:1" fill="#e2e1da" d="M 1727.5,36.5 C 1730.01,36.838 1732.34,36.838 1734.5,36.5C 1735.66,40.4589 1735.83,44.4589 1735,48.5C 1731.8,51.2647 1728.96,50.9314 1726.5,47.5C 1726.83,47.1667 1727.17,46.8333 1727.5,46.5C 1729.64,49.0186 1731.64,49.0186 1733.5,46.5C 1726.67,46.2118 1724.67,42.8785 1727.5,36.5 Z"/></g>
<g><path style="opacity:1" fill="#3a3546" d="M 1728.5,38.5 C 1734.18,38.8597 1734.84,40.8597 1730.5,44.5C 1728.72,42.9775 1728.05,40.9775 1728.5,38.5 Z"/></g>
<g><path style="opacity:1" fill="#dfd9d0" d="M 1748.5,36.5 C 1750.47,36.2606 1752.3,36.5939 1754,37.5C 1754.69,38.3317 1754.52,38.9984 1753.5,39.5C 1752.23,38.5721 1750.9,38.4054 1749.5,39C 1756.45,43.3055 1755.79,45.4722 1747.5,45.5C 1747.63,42.1043 1748.63,41.7709 1750.5,44.5C 1751.46,42.1167 1750.46,41.1167 1747.5,41.5C 1747.37,39.7085 1747.7,38.0418 1748.5,36.5 Z"/></g>
<g><path style="opacity:1" fill="#cdced0" d="M 1803.5,46.5 C 1802.83,46.1667 1802.17,45.8333 1801.5,45.5C 1801.84,41.5623 1803.84,40.5623 1807.5,42.5C 1808.75,45.9203 1807.42,47.2536 1803.5,46.5 Z"/></g>
<g><path style="opacity:1" fill="#a76146" d="M 1882.5,45.5 C 1882.5,47.1667 1882.5,48.8333 1882.5,50.5C 1880.83,50.5 1879.17,50.5 1877.5,50.5C 1877.74,49.209 1877.4,48.209 1876.5,47.5C 1875.83,46.1667 1874.83,45.1667 1873.5,44.5C 1873.37,42.3453 1873.87,40.3453 1875,38.5C 1877.52,40.9456 1880.02,43.2789 1882.5,45.5 Z"/></g>
<g><path style="opacity:1" fill="#0b0907" d="M 1873.5,44.5 C 1874.83,45.1667 1875.83,46.1667 1876.5,47.5C 1876.42,50.2062 1876.09,52.8728 1875.5,55.5C 1870.62,57.0095 1865.95,56.6762 1861.5,54.5C 1862.29,52.6264 1862.95,50.6264 1863.5,48.5C 1864.46,46.7354 1864.79,44.7354 1864.5,42.5C 1867.86,42.0914 1870.86,42.7581 1873.5,44.5 Z"/></g>
<g><path style="opacity:1" fill="#f7f7f7" d="M 810.5,193.5 C 838.875,189.919 857.375,201.586 866,228.5C 868.496,266.67 850.663,285.17 812.5,284C 794.915,280.078 783.415,269.578 778,252.5C 772.026,223.361 782.859,203.694 810.5,193.5 Z"/></g>
<g><path style="opacity:1" fill="#f6f7f7" d="M 943.5,193.5 C 972.423,189.857 990.923,201.857 999,229.5C 1001.02,267.149 983.184,285.316 945.5,284C 927.174,279.673 915.341,268.507 910,250.5C 905.292,221.889 916.458,202.889 943.5,193.5 Z"/></g>
<g><path style="opacity:1" fill="#9d9ea3" d="M 647.5,194.5 C 630.833,194.5 614.167,194.5 597.5,194.5C 597.5,224.167 597.5,253.833 597.5,283.5C 596.502,253.671 596.169,223.671 596.5,193.5C 613.675,193.17 630.675,193.503 647.5,194.5 Z"/></g>
<g><path style="opacity:1" fill="#fcfcfc" d="M 647.5,194.5 C 648.833,197.5 648.833,200.5 647.5,203.5C 634.5,203.5 621.5,203.5 608.5,203.5C 608.173,213.681 608.506,223.681 609.5,233.5C 619.833,233.5 630.167,233.5 640.5,233.5C 640.5,236.833 640.5,240.167 640.5,243.5C 630.167,243.5 619.833,243.5 609.5,243.5C 609.5,256.833 609.5,270.167 609.5,283.5C 605.5,283.5 601.5,283.5 597.5,283.5C 597.5,253.833 597.5,224.167 597.5,194.5C 614.167,194.5 630.833,194.5 647.5,194.5 Z"/></g>
<g><path style="opacity:1" fill="#3db194" d="M 693.5,194.5 C 697.5,194.5 701.5,194.5 705.5,194.5C 705.5,221.167 705.5,247.833 705.5,274.5C 715.833,274.5 726.167,274.5 736.5,274.5C 736.5,277.5 736.5,280.5 736.5,283.5C 722.167,283.5 707.833,283.5 693.5,283.5C 693.5,253.833 693.5,224.167 693.5,194.5 Z"/></g>
<g><path style="opacity:1" fill="#3db295" d="M 1046.5,194.5 C 1060.17,194.333 1073.84,194.5 1087.5,195C 1105.33,200.819 1110.49,212.319 1103,229.5C 1100.29,233.104 1096.79,235.604 1092.5,237C 1108.18,244.718 1112.35,256.551 1105,272.5C 1100.35,277.913 1094.51,281.413 1087.5,283C 1073.84,283.5 1060.17,283.667 1046.5,283.5C 1046.5,253.833 1046.5,224.167 1046.5,194.5 Z"/></g>
<g><path style="opacity:1" fill="#fcfcfc" d="M 1168.5,273.5 C 1178.65,274.494 1188.99,274.828 1199.5,274.5C 1199.5,277.5 1199.5,280.5 1199.5,283.5C 1185.17,283.5 1170.83,283.5 1156.5,283.5C 1156.5,253.833 1156.5,224.167 1156.5,194.5C 1160.5,194.5 1164.5,194.5 1168.5,194.5C 1168.5,220.833 1168.5,247.167 1168.5,273.5 Z"/></g>
<g><path style="opacity:1" fill="#cfcfd1" d="M 1292.5,203.5 C 1292.17,203.5 1291.83,203.5 1291.5,203.5C 1291.5,200.5 1291.5,197.5 1291.5,194.5C 1275.83,194.5 1260.17,194.5 1244.5,194.5C 1244.5,224.167 1244.5,253.833 1244.5,283.5C 1243.5,253.671 1243.17,223.671 1243.5,193.5C 1259.83,193.5 1276.17,193.5 1292.5,193.5C 1292.5,196.833 1292.5,200.167 1292.5,203.5 Z"/></g>
<g><path style="opacity:1" fill="#fcfcfc" d="M 1291.5,203.5 C 1279.5,203.5 1267.5,203.5 1255.5,203.5C 1255.17,213.681 1255.51,223.681 1256.5,233.5C 1267.17,233.5 1277.83,233.5 1288.5,233.5C 1288.5,236.833 1288.5,240.167 1288.5,243.5C 1277.5,243.5 1266.5,243.5 1255.5,243.5C 1255.5,253.5 1255.5,263.5 1255.5,273.5C 1267.83,273.5 1280.17,273.5 1292.5,273.5C 1292.5,276.833 1292.5,280.167 1292.5,283.5C 1276.5,283.5 1260.5,283.5 1244.5,283.5C 1244.5,253.833 1244.5,224.167 1244.5,194.5C 1260.17,194.5 1275.83,194.5 1291.5,194.5C 1291.5,197.5 1291.5,200.5 1291.5,203.5 Z"/></g>
<g><path style="opacity:1" fill="#2a2c35" d="M 815.5,203.5 C 843.302,203.803 855.802,217.803 853,245.5C 846.675,270.252 831.175,278.752 806.5,271C 792.767,261.51 786.934,248.343 789,231.5C 792.198,216.803 801.031,207.47 815.5,203.5 Z"/></g>
<g><path style="opacity:1" fill="#2b2d36" d="M 948.5,203.5 C 967.576,202.27 980.076,210.603 986,228.5C 987.554,240.178 985.554,251.178 980,261.5C 970.545,272.317 958.712,276.151 944.5,273C 931.163,268.182 923.663,258.682 922,244.5C 919.815,223.504 928.648,209.837 948.5,203.5 Z"/></g>
<g><path style="opacity:1" fill="#77787e" d="M 1291.5,203.5 C 1291.83,203.5 1292.17,203.5 1292.5,203.5C 1280.68,204.495 1268.68,204.828 1256.5,204.5C 1256.5,214.167 1256.5,223.833 1256.5,233.5C 1255.51,223.681 1255.17,213.681 1255.5,203.5C 1267.5,203.5 1279.5,203.5 1291.5,203.5 Z"/></g>
<g><path style="opacity:1" fill="#999a9e" d="M 647.5,203.5 C 635.011,204.495 622.344,204.829 609.5,204.5C 609.5,214.167 609.5,223.833 609.5,233.5C 608.506,223.681 608.173,213.681 608.5,203.5C 621.5,203.5 634.5,203.5 647.5,203.5 Z"/></g>
<g><path style="opacity:1" fill="#32635c" d="M 1080.5,204.5 C 1073.17,204.5 1065.83,204.5 1058.5,204.5C 1058.5,213.833 1058.5,223.167 1058.5,232.5C 1057.51,223.014 1057.17,213.348 1057.5,203.5C 1065.35,203.175 1073.02,203.508 1080.5,204.5 Z"/></g>
<g><path style="opacity:1" fill="#2a2c35" d="M 1080.5,204.5 C 1093.53,206.881 1097.36,214.215 1092,226.5C 1089.9,229.467 1087.07,231.3 1083.5,232C 1075.17,232.5 1066.84,232.666 1058.5,232.5C 1058.5,223.167 1058.5,213.833 1058.5,204.5C 1065.83,204.5 1073.17,204.5 1080.5,204.5 Z"/></g>
<g><path style="opacity:1" fill="#2a2d36" d="M 1057.5,242.5 C 1065.84,242.334 1074.17,242.5 1082.5,243C 1096.14,246.45 1099.97,254.617 1094,267.5C 1092.46,269.378 1090.62,270.878 1088.5,272C 1078.25,273.426 1067.91,273.926 1057.5,273.5C 1057.5,263.167 1057.5,252.833 1057.5,242.5 Z"/></g>
<g><path style="opacity:1" fill="#a4a5a9" d="M 1168.5,273.5 C 1179.17,273.5 1189.83,273.5 1200.5,273.5C 1200.81,277.042 1200.48,280.375 1199.5,283.5C 1199.5,280.5 1199.5,277.5 1199.5,274.5C 1188.99,274.828 1178.65,274.494 1168.5,273.5 Z"/></g>
<g><path style="opacity:1" fill="#fefefe" d="M 502.5,399.5 C 806.5,399.333 1110.5,399.5 1414.5,400C 1434.2,405.553 1442.03,418.386 1438,438.5C 1434.21,449.952 1426.38,456.785 1414.5,459C 1110.5,459.667 806.5,459.667 502.5,459C 483.959,452.088 476.792,438.921 481,419.5C 485.171,409.491 492.338,402.825 502.5,399.5 Z"/></g>
<g><path style="opacity:1" fill="#23151d" d="M 513.5,418.5 C 522.59,417.42 526.257,421.253 524.5,430C 525.776,432.281 527.443,434.281 529.5,436C 528.725,437.23 527.725,437.563 526.5,437C 524.981,435.649 523.648,434.149 522.5,432.5C 517.46,435.533 513.294,434.533 510,429.5C 508.662,424.96 509.829,421.293 513.5,418.5 Z"/></g>
<g><path style="opacity:1" fill="#eeebe7" d="M 514.5,421.5 C 518.881,420.534 521.881,422.034 523.5,426C 521.129,431.969 517.629,432.802 513,428.5C 512.167,425.829 512.667,423.496 514.5,421.5 Z"/></g>
<g><path style="opacity:1" fill="#10090e" d="M 1416.5,431.5 C 1414.9,432.562 1413.23,432.562 1411.5,431.5C 1411.34,428.482 1411.5,425.482 1412,422.5C 1413.33,421.167 1414.67,421.167 1416,422.5C 1416.5,425.482 1416.66,428.482 1416.5,431.5 Z"/></g>
<g><path style="opacity:1" fill="#4871a7" d="M 1411.5,431.5 C 1411.83,432.167 1412.17,432.833 1412.5,433.5C 1412.17,433.5 1411.83,433.5 1411.5,433.5C 1409.56,431.989 1409.06,429.989 1410,427.5C 1410.21,429.058 1410.71,430.391 1411.5,431.5 Z"/></g>
<g><path style="opacity:1" fill="#dac9b5" d="M 1411.5,431.5 C 1413.23,432.562 1414.9,432.562 1416.5,431.5C 1416.83,431.5 1417.17,431.5 1417.5,431.5C 1417.17,432.167 1416.83,432.833 1416.5,433.5C 1415.17,433.5 1413.83,433.5 1412.5,433.5C 1412.17,432.833 1411.83,432.167 1411.5,431.5 Z"/></g>
<g><path style="opacity:1" fill="#4f578e" d="M 1416.5,434.5 C 1416.5,434.167 1416.5,433.833 1416.5,433.5C 1416.83,432.833 1417.17,432.167 1417.5,431.5C 1418.29,430.391 1418.79,429.058 1419,427.5C 1420.09,430.614 1419.25,432.947 1416.5,434.5 Z"/></g>
<g><path style="opacity:1" fill="#030003" d="M 1411.5,433.5 C 1411.83,433.5 1412.17,433.5 1412.5,433.5C 1413.83,433.5 1415.17,433.5 1416.5,433.5C 1416.5,433.833 1416.5,434.167 1416.5,434.5C 1413.89,435.095 1413.89,435.929 1416.5,437C 1414.83,437.667 1413.17,437.667 1411.5,437C 1413.93,435.908 1413.93,434.741 1411.5,433.5 Z"/></g>
<g><path style="opacity:1" fill="#757575" d="M 939.5,523.5 C 938.234,522.91 936.901,522.41 935.5,522C 860.5,521.333 785.5,521.333 710.5,522C 708.333,522.833 706.833,524.333 706,526.5C 705.333,548.167 705.333,569.833 706,591.5C 706.41,592.901 706.91,594.234 707.5,595.5C 707.5,596.167 707.167,596.5 706.5,596.5C 705.442,595.4 704.608,594.066 704,592.5C 703.333,570.167 703.333,547.833 704,525.5C 705.167,523 707,521.167 709.5,520C 785.167,519.333 860.833,519.333 936.5,520C 938.426,520.422 939.426,521.589 939.5,523.5 Z"/></g>
<g><path style="opacity:1" fill="#757575" d="M 1211.5,523.5 C 1210.23,522.91 1208.9,522.41 1207.5,522C 1132.5,521.333 1057.5,521.333 982.5,522C 980.333,522.833 978.833,524.333 978,526.5C 977.333,548.167 977.333,569.833 978,591.5C 978.41,592.901 978.91,594.234 979.5,595.5C 979.5,596.167 979.167,596.5 978.5,596.5C 977.442,595.4 976.608,594.066 976,592.5C 975.333,570.167 975.333,547.833 976,525.5C 977.167,523 979,521.167 981.5,520C 1057.17,519.333 1132.83,519.333 1208.5,520C 1210.43,520.422 1211.43,521.589 1211.5,523.5 Z"/></g>
<g><path style="opacity:1" fill="#eeeded" d="M 939.5,523.5 C 939.987,524.473 940.487,525.473 941,526.5C 941.667,548.5 941.667,570.5 941,592.5C 940.167,594.667 938.667,596.167 936.5,597C 861.167,597.667 785.833,597.667 710.5,597C 709.473,596.487 708.473,595.987 707.5,595.5C 706.91,594.234 706.41,592.901 706,591.5C 705.333,569.833 705.333,548.167 706,526.5C 706.833,524.333 708.333,522.833 710.5,522C 785.5,521.333 860.5,521.333 935.5,522C 936.901,522.41 938.234,522.91 939.5,523.5 Z"/></g>
<g><path style="opacity:1" fill="#edecec" d="M 1211.5,523.5 C 1211.99,524.473 1212.49,525.473 1213,526.5C 1213.67,548.5 1213.67,570.5 1213,592.5C 1212.17,594.667 1210.67,596.167 1208.5,597C 1133.17,597.667 1057.83,597.667 982.5,597C 981.473,596.487 980.473,595.987 979.5,595.5C 978.91,594.234 978.41,592.901 978,591.5C 977.333,569.833 977.333,548.167 978,526.5C 978.833,524.333 980.333,522.833 982.5,522C 1057.5,521.333 1132.5,521.333 1207.5,522C 1208.9,522.41 1210.23,522.91 1211.5,523.5 Z"/></g>
<g><path style="opacity:1" fill="#212121" d="M 706.5,596.5 C 707.167,596.5 707.5,596.167 707.5,595.5C 708.473,595.987 709.473,596.487 710.5,597C 785.833,597.667 861.167,597.667 936.5,597C 938.667,596.167 940.167,594.667 941,592.5C 941.667,570.5 941.667,548.5 941,526.5C 940.487,525.473 939.987,524.473 939.5,523.5C 940.117,523.389 940.617,523.056 941,522.5C 941.419,523.672 942.085,524.672 943,525.5C 943.667,547.5 943.667,569.5 943,591.5C 942.573,595.527 940.406,598.027 936.5,599C 860.833,599.667 785.167,599.667 709.5,599C 708.429,598.148 707.429,597.315 706.5,596.5 Z"/></g>
<g><path style="opacity:1" fill="#212121" d="M 978.5,596.5 C 979.167,596.5 979.5,596.167 979.5,595.5C 980.473,595.987 981.473,596.487 982.5,597C 1057.83,597.667 1133.17,597.667 1208.5,597C 1210.67,596.167 1212.17,594.667 1213,592.5C 1213.67,570.5 1213.67,548.5 1213,526.5C 1212.49,525.473 1211.99,524.473 1211.5,523.5C 1212.12,523.389 1212.62,523.056 1213,522.5C 1213.42,523.672 1214.09,524.672 1215,525.5C 1215.67,547.5 1215.67,569.5 1215,591.5C 1214.57,595.527 1212.41,598.027 1208.5,599C 1132.83,599.667 1057.17,599.667 981.5,599C 980.429,598.148 979.429,597.315 978.5,596.5 Z"/></g>
<g><path style="opacity:1" fill="#030408" d="M 745.5,550.5 C 749.226,550.177 752.893,550.511 756.5,551.5C 753.232,552.487 749.898,552.82 746.5,552.5C 746.5,554.167 746.5,555.833 746.5,557.5C 757.167,558.167 757.167,558.833 746.5,559.5C 746.664,562.187 746.497,564.854 746,567.5C 745.501,561.843 745.334,556.176 745.5,550.5 Z"/></g>
<g><path style="opacity:1" fill="#195077" d="M 759.5,550.5 C 760.814,552.915 761.481,555.748 761.5,559C 761.167,561.833 760.833,564.667 760.5,567.5C 759.505,561.872 759.171,556.206 759.5,550.5 Z"/></g>
<g><path style="opacity:1" fill="#292734" d="M 791.5,550.5 C 793.117,551.589 793.95,553.256 794,555.5C 796.499,554.202 798.833,554.536 801,556.5C 802.227,560.591 801.394,564.091 798.5,567C 796.299,567.825 794.466,567.325 793,565.5C 792.667,566.167 792.333,566.833 792,567.5C 791.501,561.843 791.334,556.176 791.5,550.5 Z"/></g>
<g><path style="opacity:1" fill="#3dfa52" d="M 804.5,550.5 C 805.814,552.915 806.481,555.748 806.5,559C 806.167,561.833 805.833,564.667 805.5,567.5C 804.505,561.872 804.171,556.206 804.5,550.5 Z"/></g>
<g><path style="opacity:1" fill="#460630" d="M 892.5,550.5 C 893.999,551.678 894.999,553.345 895.5,555.5C 897.969,553.993 900.135,554.327 902,556.5C 902.825,560.211 902.659,563.878 901.5,567.5C 900.511,563.893 900.177,560.226 900.5,556.5C 898.533,556.261 896.699,556.594 895,557.5C 894.824,560.882 894.324,564.215 893.5,567.5C 892.505,561.872 892.171,556.206 892.5,550.5 Z"/></g>
<g><path style="opacity:1" fill="#131013" d="M 1016.5,550.5 C 1017.16,552.042 1017.83,553.709 1018.5,555.5C 1020.5,554.167 1022.5,554.167 1024.5,555.5C 1025.66,559.459 1025.83,563.459 1025,567.5C 1024.67,564.167 1024.33,560.833 1024,557.5C 1022.2,556.233 1020.37,556.233 1018.5,557.5C 1017.68,560.785 1017.18,564.118 1017,567.5C 1016.5,561.843 1016.33,556.176 1016.5,550.5 Z"/></g>
<g><path style="opacity:1" fill="#120816" d="M 1072.5,559.5 C 1072.17,559.5 1071.83,559.5 1071.5,559.5C 1071.15,557.287 1070.32,555.287 1069,553.5C 1068.67,558.167 1068.33,562.833 1068,567.5C 1067.5,561.843 1067.33,556.176 1067.5,550.5C 1068.5,550.5 1069.5,550.5 1070.5,550.5C 1071.17,553.5 1071.83,556.5 1072.5,559.5 Z"/></g>
<g><path style="opacity:1" fill="#242b3b" d="M 1079.5,555.5 C 1079.5,553.833 1079.5,552.167 1079.5,550.5C 1080.83,550.5 1082.17,550.5 1083.5,550.5C 1083.83,556.206 1083.5,561.872 1082.5,567.5C 1081.67,562.868 1081.17,558.202 1081,553.5C 1080.72,554.416 1080.22,555.082 1079.5,555.5 Z"/></g>
<g><path style="opacity:1" fill="#26150a" d="M 1105.5,550.5 C 1109.88,550.174 1114.22,550.508 1118.5,551.5C 1116.6,552.466 1114.6,552.799 1112.5,552.5C 1111.83,572.5 1111.17,572.5 1110.5,552.5C 1108.22,552.923 1106.55,552.256 1105.5,550.5 Z"/></g>
<g><path style="opacity:1" fill="#131013" d="M 1121.5,550.5 C 1122.16,552.042 1122.83,553.709 1123.5,555.5C 1125.5,554.167 1127.5,554.167 1129.5,555.5C 1130.66,559.459 1130.83,563.459 1130,567.5C 1129.67,564.167 1129.33,560.833 1129,557.5C 1127.2,556.233 1125.37,556.233 1123.5,557.5C 1122.68,560.785 1122.18,564.118 1122,567.5C 1121.5,561.843 1121.33,556.176 1121.5,550.5 Z"/></g>
<g><path style="opacity:1" fill="#281f23" d="M 1158.5,552.5 C 1155.95,554.038 1155.95,555.704 1158.5,557.5C 1163.8,558.23 1165.46,561.064 1163.5,566C 1157.85,569.05 1155.01,567.55 1155,561.5C 1155.42,563.55 1156.58,564.884 1158.5,565.5C 1159.83,565.5 1161.17,565.5 1162.5,565.5C 1163.03,562.112 1161.7,560.112 1158.5,559.5C 1154.09,557.622 1153.42,554.789 1156.5,551C 1159.26,550.218 1161.76,550.718 1164,552.5C 1164.75,553.635 1164.58,554.635 1163.5,555.5C 1162.61,554.675 1162.28,553.675 1162.5,552.5C 1161.17,552.5 1159.83,552.5 1158.5,552.5 Z"/></g>
<g><path style="opacity:1" fill="#d6e5eb" d="M 1158.5,552.5 C 1158.5,554.167 1158.5,555.833 1158.5,557.5C 1155.95,555.704 1155.95,554.038 1158.5,552.5 Z"/></g>
<g><path style="opacity:1" fill="#563825" d="M 773.5,556.5 C 773.806,559.385 773.473,562.052 772.5,564.5C 772.768,561.881 772.435,559.381 771.5,557C 769.119,556.262 767.119,556.762 765.5,558.5C 764.549,559.919 764.216,561.585 764.5,563.5C 762.199,558.516 763.865,555.516 769.5,554.5C 771.171,554.668 772.504,555.335 773.5,556.5 Z"/></g>
<g><path style="opacity:1" fill="#2c2639" d="M 780.5,554.5 C 787.369,554.538 789.869,557.871 788,564.5C 784.582,568.367 781.249,568.367 778,564.5C 777.333,561.833 777.333,559.167 778,556.5C 778.995,555.934 779.828,555.267 780.5,554.5 Z"/></g>
<g><path style="opacity:1" fill="#563825" d="M 1038.5,556.5 C 1038.81,559.385 1038.47,562.052 1037.5,564.5C 1037.77,561.881 1037.44,559.381 1036.5,557C 1034.12,556.262 1032.12,556.762 1030.5,558.5C 1029.55,559.919 1029.22,561.585 1029.5,563.5C 1027.2,558.516 1028.87,555.516 1034.5,554.5C 1036.17,554.668 1037.5,555.335 1038.5,556.5 Z"/></g>
<g><path style="opacity:1" fill="#371833" d="M 872.5,554.5 C 874.458,554.908 876.458,555.241 878.5,555.5C 877.311,556.429 875.978,556.762 874.5,556.5C 874.823,560.226 874.489,563.893 873.5,567.5C 872.508,563.217 872.174,558.884 872.5,554.5 Z"/></g>
<g><path style="opacity:1" fill="#dfe5e9" d="M 772.5,564.5 C 767.228,566.24 764.895,564.24 765.5,558.5C 767.119,556.762 769.119,556.262 771.5,557C 772.435,559.381 772.768,561.881 772.5,564.5 Z"/></g>
<g><path style="opacity:1" fill="#e8e1d8" d="M 780.5,556.5 C 782.467,556.261 784.301,556.594 786,557.5C 786.769,560.099 786.602,562.599 785.5,565C 783.559,565.743 781.726,565.576 780,564.5C 779.278,561.739 779.445,559.073 780.5,556.5 Z"/></g>
<g><path style="opacity:1" fill="#eae9e4" d="M 794.5,556.5 C 796.144,556.286 797.644,556.62 799,557.5C 799.769,560.099 799.602,562.599 798.5,565C 796.888,565.72 795.388,565.554 794,564.5C 793.278,561.739 793.445,559.073 794.5,556.5 Z"/></g>
<g><path style="opacity:1" fill="#dfe5e9" d="M 1037.5,564.5 C 1032.23,566.24 1029.89,564.24 1030.5,558.5C 1032.12,556.762 1034.12,556.262 1036.5,557C 1037.44,559.381 1037.77,561.881 1037.5,564.5 Z"/></g>
<g><path style="opacity:1" fill="#332a45" d="M 1053.5,564.5 C 1053.83,564.5 1054.17,564.5 1054.5,564.5C 1054.5,565.5 1054.5,566.5 1054.5,567.5C 1053.5,567.5 1052.5,567.5 1051.5,567.5C 1051.5,566.5 1051.5,565.5 1051.5,564.5C 1051.48,562.073 1050.98,559.74 1050,557.5C 1049.51,558.793 1049.34,560.127 1049.5,561.5C 1048.8,563.556 1047.8,565.556 1046.5,567.5C 1044.88,566.131 1044.38,564.464 1045,562.5C 1045.32,564.301 1045.98,564.634 1047,563.5C 1047.27,560.776 1047.77,558.109 1048.5,555.5C 1049.32,554.614 1050.32,554.281 1051.5,554.5C 1051.9,558.011 1052.57,561.344 1053.5,564.5 Z"/></g>
<g><path style="opacity:1" fill="#251a1e" d="M 833.5,550.5 C 836.862,550.07 839.695,551.07 842,553.5C 842.688,554.332 842.521,554.998 841.5,555.5C 839.559,552.666 836.893,551.832 833.5,553C 832.167,554.333 832.167,555.667 833.5,557C 836.172,557.834 838.839,558.668 841.5,559.5C 843.878,564.965 842.045,567.631 836,567.5C 831.638,567.325 829.805,565.325 830.5,561.5C 831.845,562.347 832.845,563.513 833.5,565C 838.199,566.713 840.532,565.213 840.5,560.5C 837.101,560.193 833.934,559.193 831,557.5C 829.916,554.341 830.75,552.008 833.5,550.5 Z"/></g>
<g><path style="opacity:1" fill="#251a1e" d="M 1003.5,550.5 C 1006.86,550.07 1009.7,551.07 1012,553.5C 1012.69,554.332 1012.52,554.998 1011.5,555.5C 1009.56,552.666 1006.89,551.832 1003.5,553C 1002.17,554.333 1002.17,555.667 1003.5,557C 1006.17,557.834 1008.84,558.668 1011.5,559.5C 1013.88,564.965 1012.04,567.631 1006,567.5C 1001.64,567.325 999.805,565.325 1000.5,561.5C 1001.84,562.347 1002.84,563.513 1003.5,565C 1008.2,566.713 1010.53,565.213 1010.5,560.5C 1007.1,560.193 1003.93,559.193 1001,557.5C 999.916,554.341 1000.75,552.008 1003.5,550.5 Z"/></g>
<g><path style="opacity:1" fill="#365787" d="M 1056.5,554.5 C 1057.38,554.369 1058.04,554.702 1058.5,555.5C 1057.86,557.78 1056.86,559.78 1055.5,561.5C 1055.67,559.139 1056.01,556.806 1056.5,554.5 Z"/></g>
<g><path style="opacity:1" fill="#201c25" d="M 1086.5,563.5 C 1086.45,561.097 1086.78,558.764 1087.5,556.5C 1093.19,553.344 1096.52,555.01 1097.5,561.5C 1094.5,561.5 1091.5,561.5 1088.5,561.5C 1088.08,564.243 1089.24,565.576 1092,565.5C 1093.37,565.156 1094.53,564.489 1095.5,563.5C 1096.59,564.868 1096.26,566.035 1094.5,567C 1090.75,568.222 1088.09,567.056 1086.5,563.5 Z"/></g>
<g><path style="opacity:1" fill="#e6e8e5" d="M 1089.5,556.5 C 1091.17,556.5 1092.83,556.5 1094.5,556.5C 1094.5,557.5 1094.5,558.5 1094.5,559.5C 1092.4,559.799 1090.4,559.466 1088.5,558.5C 1088.86,557.817 1089.2,557.15 1089.5,556.5 Z"/></g>
<g><path style="opacity:1" fill="#282532" d="M 1169.5,550.5 C 1172.27,550.22 1174.77,550.887 1177,552.5C 1177.75,553.635 1177.58,554.635 1176.5,555.5C 1175.83,554.5 1175.17,553.5 1174.5,552.5C 1173.53,554.396 1173.2,556.396 1173.5,558.5C 1174.82,558.33 1175.99,558.663 1177,559.5C 1177.67,561.5 1177.67,563.5 1177,565.5C 1175,566.167 1173.67,567.5 1173,569.5C 1171.38,567.842 1169.71,566.175 1168,564.5C 1167.25,563.365 1167.42,562.365 1168.5,561.5C 1169.15,563.149 1170.15,564.482 1171.5,565.5C 1173.14,561.6 1171.98,558.933 1168,557.5C 1167.17,554.829 1167.67,552.496 1169.5,550.5 Z"/></g>
<g><path style="opacity:1" fill="#d5ccbe" d="M 1169.5,552.5 C 1170.5,552.5 1171.5,552.5 1172.5,552.5C 1172.79,554.288 1172.45,555.955 1171.5,557.5C 1169.78,556.332 1169.12,554.665 1169.5,552.5 Z"/></g>
<g><path style="opacity:1" fill="#26182d" d="M 1185.5,549.5 C 1188.81,550.295 1190.31,552.295 1190,555.5C 1189.63,554.09 1188.8,553.09 1187.5,552.5C 1186.53,554.396 1186.2,556.396 1186.5,558.5C 1189.58,558.418 1191.25,559.918 1191.5,563C 1189.83,565.265 1188,567.432 1186,569.5C 1183.81,567.64 1181.97,565.474 1180.5,563C 1180.83,562.5 1181.17,562 1181.5,561.5C 1182.15,563.149 1183.15,564.482 1184.5,565.5C 1184.83,564.5 1185.17,563.5 1185.5,562.5C 1183.74,560.067 1182.41,557.4 1181.5,554.5C 1181.83,553.5 1182.17,552.5 1182.5,551.5C 1183.74,551.058 1184.74,550.391 1185.5,549.5 Z"/></g>
<g><path style="opacity:1" fill="#ccd4d2" d="M 1183.5,552.5 C 1184.65,552.791 1185.32,553.624 1185.5,555C 1184.71,558.122 1183.71,558.122 1182.5,555C 1182.74,554.098 1183.08,553.265 1183.5,552.5 Z"/></g>
<g><path style="opacity:1" fill="#261a1e" d="M 1142.5,556.5 C 1144.21,557.635 1144.88,559.302 1144.5,561.5C 1141.5,561.5 1138.5,561.5 1135.5,561.5C 1135.78,565.225 1137.78,566.392 1141.5,565C 1143.79,562.976 1144.46,563.31 1143.5,566C 1137.46,569.132 1134.13,567.298 1133.5,560.5C 1134.68,554.487 1137.68,553.153 1142.5,556.5 Z"/></g>
<g><path style="opacity:1" fill="#dbd9d7" d="M 1142.5,556.5 C 1142.5,557.5 1142.5,558.5 1142.5,559.5C 1140.08,559.808 1137.74,559.474 1135.5,558.5C 1135.71,557.914 1136.04,557.414 1136.5,557C 1138.47,556.505 1140.47,556.338 1142.5,556.5 Z"/></g>
<g><path style="opacity:1" fill="#271b21" d="M 812.5,554.5 C 817.682,554.018 820.349,556.351 820.5,561.5C 817.5,561.5 814.5,561.5 811.5,561.5C 811.78,565.225 813.78,566.392 817.5,565C 818.424,563.511 819.424,563.344 820.5,564.5C 813.979,569.58 810.313,567.913 809.5,559.5C 809.771,557.307 810.771,555.641 812.5,554.5 Z"/></g>
<g><path style="opacity:1" fill="#e0e0dc" d="M 812.5,556.5 C 814.977,556.051 816.977,556.717 818.5,558.5C 816.167,559.833 813.833,559.833 811.5,558.5C 811.863,557.817 812.196,557.15 812.5,556.5 Z"/></g>
<g><path style="opacity:1" fill="#271b21" d="M 848.5,554.5 C 853.682,554.018 856.349,556.351 856.5,561.5C 853.5,561.5 850.5,561.5 847.5,561.5C 847.78,565.225 849.78,566.392 853.5,565C 854.424,563.511 855.424,563.344 856.5,564.5C 849.979,569.58 846.313,567.913 845.5,559.5C 845.771,557.307 846.771,555.641 848.5,554.5 Z"/></g>
<g><path style="opacity:1" fill="#e0e0dc" d="M 848.5,556.5 C 850.977,556.051 852.977,556.717 854.5,558.5C 852.167,559.833 849.833,559.833 847.5,558.5C 847.863,557.817 848.196,557.15 848.5,556.5 Z"/></g>
<g><path style="opacity:1" fill="#c88b3f" d="M 1087.5,556.5 C 1086.78,558.764 1086.45,561.097 1086.5,563.5C 1085.85,562.726 1085.52,561.726 1085.5,560.5C 1085.34,558.645 1086.01,557.312 1087.5,556.5 Z"/></g>
<g><path style="opacity:1" fill="#c9b9a8" d="M 1158.5,559.5 C 1161.7,560.112 1163.03,562.112 1162.5,565.5C 1161.17,565.5 1159.83,565.5 1158.5,565.5C 1158.5,563.5 1158.5,561.5 1158.5,559.5 Z"/></g>
<g><path style="opacity:1" fill="#e5ccb3" d="M 1173.5,560.5 C 1174.5,560.5 1175.5,560.5 1176.5,560.5C 1176.88,562.665 1176.22,564.332 1174.5,565.5C 1173.55,563.955 1173.21,562.288 1173.5,560.5 Z"/></g>
<g><path style="opacity:1" fill="#dedcc9" d="M 1186.5,559.5 C 1189.96,561.061 1190.29,563.061 1187.5,565.5C 1186.53,563.604 1186.2,561.604 1186.5,559.5 Z"/></g>
<g><path style="opacity:1" fill="#9c5d29" d="M 1056.5,554.5 C 1056.01,556.806 1055.67,559.139 1055.5,561.5C 1054.89,562.391 1054.56,563.391 1054.5,564.5C 1054.17,564.5 1053.83,564.5 1053.5,564.5C 1053.76,560.829 1054.76,557.495 1056.5,554.5 Z"/></g>
<g><path style="opacity:1" fill="#c1884c" d="M 1071.5,559.5 C 1071.83,559.5 1072.17,559.5 1072.5,559.5C 1072.96,562.221 1073.63,564.888 1074.5,567.5C 1072.35,565.383 1071.35,562.716 1071.5,559.5 Z"/></g>
<g><path style="opacity:1" fill="#c8904f" d="M 1051.5,564.5 C 1050.83,563.5 1050.17,562.5 1049.5,561.5C 1049.34,560.127 1049.51,558.793 1050,557.5C 1050.98,559.74 1051.48,562.073 1051.5,564.5 Z"/></g>
<g><path style="opacity:1" fill="#3f3d58" d="M 1079.5,555.5 C 1079.35,560.311 1077.69,564.311 1074.5,567.5C 1073.63,564.888 1072.96,562.221 1072.5,559.5C 1074.07,560.681 1074.9,562.347 1075,564.5C 1076.8,561.547 1078.3,558.547 1079.5,555.5 Z"/></g>
<g><path style="opacity:1" fill="#21232f" d="M 773.5,556.5 C 775.026,557.492 775.693,558.992 775.5,561C 775.379,565.121 773.212,567.288 769,567.5C 766.859,566.879 765.359,565.546 764.5,563.5C 764.216,561.585 764.549,559.919 765.5,558.5C 764.895,564.24 767.228,566.24 772.5,564.5C 773.473,562.052 773.806,559.385 773.5,556.5 Z"/></g>
<g><path style="opacity:1" fill="#2b2229" d="M 861.5,554.5 C 867.488,553.639 870.155,556.139 869.5,562C 869.167,563.833 868.833,565.667 868.5,567.5C 865.895,566.964 863.228,566.798 860.5,567C 858.789,565.867 858.289,564.367 859,562.5C 860.826,560.926 862.993,560.093 865.5,560C 866.337,558.989 866.67,557.822 866.5,556.5C 863.956,556.104 861.789,556.771 860,558.5C 859.7,556.934 860.2,555.601 861.5,554.5 Z"/></g>
<g><path style="opacity:1" fill="#d7d0c9" d="M 862.5,561.5 C 864.167,561.5 865.833,561.5 867.5,561.5C 867.67,562.822 867.337,563.989 866.5,565C 864.527,565.495 862.527,565.662 860.5,565.5C 860.527,563.801 861.194,562.467 862.5,561.5 Z"/></g>
<g><path style="opacity:1" fill="#292534" d="M 883.5,554.5 C 886.463,554.151 888.796,555.151 890.5,557.5C 888.206,556.726 885.706,556.726 883,557.5C 882.231,560.099 882.398,562.599 883.5,565C 886.259,565.977 888.259,565.144 889.5,562.5C 889.913,565.132 888.58,566.799 885.5,567.5C 883.617,567.124 882.117,566.124 881,564.5C 880.333,561.833 880.333,559.167 881,556.5C 881.995,555.934 882.828,555.267 883.5,554.5 Z"/></g>
<g><path style="opacity:1" fill="#21232f" d="M 1038.5,556.5 C 1040.03,557.492 1040.69,558.992 1040.5,561C 1040.38,565.121 1038.21,567.288 1034,567.5C 1031.86,566.879 1030.36,565.546 1029.5,563.5C 1029.22,561.585 1029.55,559.919 1030.5,558.5C 1029.89,564.24 1032.23,566.24 1037.5,564.5C 1038.47,562.052 1038.81,559.385 1038.5,556.5 Z"/></g>
<g><path style="opacity:1" fill="#5e637b" d="M -0.5,895.5 C 638.833,895.5 1278.17,895.5 1917.5,895.5C 1917.5,919.5 1917.5,943.5 1917.5,967.5C 1278.17,967.5 638.833,967.5 -0.5,967.5C -0.5,943.5 -0.5,919.5 -0.5,895.5 Z"/></g>
<g><path style="opacity:1" fill="#fffeef" d="M 1754.5,927.5 C 1758.99,926.259 1760.32,926.259 1758.5,927.5C 1758.17,940.833 1757.83,940.833 1757.5,927.5C 1756.5,927.5 1755.5,927.5 1754.5,927.5 Z"/></g>
<g><path style="opacity:1" fill="#edebe4" d="M 95.5,926.5 C 97.0783,927.066 98.4116,928.066 99.5,929.5C 96.8954,932.089 96.8954,934.589 99.5,937C 98.2068,937.49 96.8734,937.657 95.5,937.5C 95.086,933.718 95.086,930.051 95.5,926.5 Z"/></g>
<g><path style="opacity:1" fill="#e6ebe9" d="M 198.5,928.5 C 200.152,929.807 201.818,929.807 203.5,928.5C 205.029,928.529 206.196,929.196 207,930.5C 207.814,932.902 207.647,935.235 206.5,937.5C 205.526,935.257 205.192,932.924 205.5,930.5C 203.833,930.5 202.167,930.5 200.5,930.5C 200.808,932.924 200.474,935.257 199.5,937.5C 198.516,934.572 198.183,931.572 198.5,928.5 Z"/></g>
<g><path style="opacity:1" fill="#ece8e3" d="M 228.5,928.5 C 230.288,928.215 231.955,928.548 233.5,929.5C 234.506,930.396 234.506,931.062 233.5,931.5C 232.232,930.572 230.899,930.405 229.5,931C 236.455,935.305 235.788,937.472 227.5,937.5C 227.633,934.104 228.633,933.771 230.5,936.5C 231.308,936.192 231.975,935.692 232.5,935C 228.282,934.328 226.949,932.162 228.5,928.5 Z"/></g>
<g><path style="opacity:1" fill="#e6e6e5" d="M 1709.5,928.5 C 1711.98,928.051 1713.98,928.717 1715.5,930.5C 1713.67,930.92 1711.67,930.92 1709.5,930.5C 1708.58,935.944 1710.24,937.277 1714.5,934.5C 1715.48,936.87 1714.48,937.87 1711.5,937.5C 1705.88,935.643 1705.22,932.643 1709.5,928.5 Z"/></g>
<g><path style="opacity:1" fill="#ece8e3" d="M 1889.5,928.5 C 1891.29,928.215 1892.95,928.548 1894.5,929.5C 1895.51,930.396 1895.51,931.062 1894.5,931.5C 1893.23,930.572 1891.9,930.405 1890.5,931C 1897.45,935.305 1896.79,937.472 1888.5,937.5C 1888.63,934.104 1889.63,933.771 1891.5,936.5C 1892.31,936.192 1892.97,935.692 1893.5,935C 1889.28,934.328 1887.95,932.162 1889.5,928.5 Z"/></g>
<g><path style="opacity:1" fill="#f1e3d4" d="M 89.5,928.5 C 90.9778,928.238 92.3112,928.571 93.5,929.5C 92.0781,931.965 91.0781,934.631 90.5,937.5C 89.5159,934.572 89.1826,931.572 89.5,928.5 Z"/></g>
<g><path style="opacity:1" fill="#e3f0ee" d="M 100.5,928.5 C 101.765,929.514 102.431,931.014 102.5,933C 102.167,934.5 101.833,936 101.5,937.5C 100.516,934.572 100.183,931.572 100.5,928.5 Z"/></g>
<g><path style="opacity:1" fill="#e7e6e6" d="M 105.5,928.5 C 107.467,928.261 109.301,928.594 111,929.5C 111.688,930.332 111.521,930.998 110.5,931.5C 109.232,930.572 107.899,930.405 106.5,931C 107.891,932.02 109.391,932.853 111,933.5C 111.49,934.793 111.657,936.127 111.5,937.5C 109.208,937.756 107.041,937.423 105,936.5C 104.312,935.668 104.479,935.002 105.5,934.5C 106.5,935.167 107.5,935.833 108.5,936.5C 108.833,936.167 109.167,935.833 109.5,935.5C 108.086,934.376 106.586,933.376 105,932.5C 104.421,931.072 104.588,929.738 105.5,928.5 Z"/></g>
<g><path style="opacity:1" fill="#e4c3a2" d="M 113.5,928.5 C 114.765,929.514 115.431,931.014 115.5,933C 115.167,934.5 114.833,936 114.5,937.5C 113.516,934.572 113.183,931.572 113.5,928.5 Z"/></g>
<g><path style="opacity:1" fill="#f1eee7" d="M 166.5,926.5 C 168.857,926.337 171.19,926.503 173.5,927C 174.022,927.561 174.355,928.228 174.5,929C 174.046,931.422 173.879,933.922 174,936.5C 171.619,937.435 169.119,937.768 166.5,937.5C 166.5,933.833 166.5,930.167 166.5,926.5 Z"/></g>
<g><path style="opacity:1" fill="#61688a" d="M 168.5,927.5 C 170.346,927.222 171.68,927.889 172.5,929.5C 171.311,930.429 169.978,930.762 168.5,930.5C 168.5,929.5 168.5,928.5 168.5,927.5 Z"/></g>
<g><path style="opacity:1" fill="#eae7e1" d="M 187.5,928.5 C 189.467,928.261 191.301,928.594 193,929.5C 193.688,930.332 193.521,930.998 192.5,931.5C 191.232,930.572 189.899,930.405 188.5,931C 189.891,932.02 191.391,932.853 193,933.5C 193.684,934.784 193.517,935.951 192.5,937C 190.559,937.743 188.726,937.576 187,936.5C 186.312,935.668 186.479,935.002 187.5,934.5C 188.623,936.289 189.956,936.622 191.5,935.5C 190.086,934.376 188.586,933.376 187,932.5C 186.421,931.072 186.588,929.738 187.5,928.5 Z"/></g>
<g><path style="opacity:1" fill="#e3f0ee" d="M 194.5,928.5 C 195.765,929.514 196.431,931.014 196.5,933C 196.167,934.5 195.833,936 195.5,937.5C 194.516,934.572 194.183,931.572 194.5,928.5 Z"/></g>
<g><path style="opacity:1" fill="#e7e6e6" d="M 219.5,928.5 C 221.467,928.261 223.301,928.594 225,929.5C 225.688,930.332 225.521,930.998 224.5,931.5C 223.232,930.572 221.899,930.405 220.5,931C 221.891,932.02 223.391,932.853 225,933.5C 225.49,934.793 225.657,936.127 225.5,937.5C 223.208,937.756 221.041,937.423 219,936.5C 218.312,935.668 218.479,935.002 219.5,934.5C 220.5,935.167 221.5,935.833 222.5,936.5C 222.833,936.167 223.167,935.833 223.5,935.5C 222.086,934.376 220.586,933.376 219,932.5C 218.421,931.072 218.588,929.738 219.5,928.5 Z"/></g>
<g><path style="opacity:1" fill="#e4ebec" d="M 1677.5,928.5 C 1679.22,929.278 1680.89,929.611 1682.5,929.5C 1681.76,930.287 1680.92,930.953 1680,931.5C 1679.81,933.577 1679.31,935.577 1678.5,937.5C 1677.52,934.572 1677.18,931.572 1677.5,928.5 Z"/></g>
<g><path style="opacity:1" fill="#e3f0ee" d="M 1683.5,928.5 C 1684.76,929.514 1685.43,931.014 1685.5,933C 1685.17,934.5 1684.83,936 1684.5,937.5C 1683.52,934.572 1683.18,931.572 1683.5,928.5 Z"/></g>
<g><path style="opacity:1" fill="#e8e8e4" d="M 1698.5,928.5 C 1700.83,928.5 1703.17,928.5 1705.5,928.5C 1705.5,931.5 1705.5,934.5 1705.5,937.5C 1697.26,938.618 1694.92,935.618 1698.5,928.5 Z"/></g>
<g><path style="opacity:1" fill="#f1e3d4" d="M 1773.5,928.5 C 1774.98,928.238 1776.31,928.571 1777.5,929.5C 1776.08,931.965 1775.08,934.631 1774.5,937.5C 1773.52,934.572 1773.18,931.572 1773.5,928.5 Z"/></g>
<g><path style="opacity:1" fill="#ebe8e1" d="M 1779.5,928.5 C 1783.99,928.944 1788.32,929.111 1792.5,929C 1793.78,931.795 1793.78,934.628 1792.5,937.5C 1791.53,935.257 1791.19,932.924 1791.5,930.5C 1790.17,930.5 1788.83,930.5 1787.5,930.5C 1786.83,939.833 1786.17,939.833 1785.5,930.5C 1784.17,930.5 1782.83,930.5 1781.5,930.5C 1781.81,932.924 1781.47,935.257 1780.5,937.5C 1779.52,934.572 1779.18,931.572 1779.5,928.5 Z"/></g>
<g><path style="opacity:1" fill="#eae7e1" d="M 1796.5,928.5 C 1798.47,928.261 1800.3,928.594 1802,929.5C 1802.69,930.332 1802.52,930.998 1801.5,931.5C 1800.23,930.572 1798.9,930.405 1797.5,931C 1798.89,932.02 1800.39,932.853 1802,933.5C 1802.68,934.784 1802.52,935.951 1801.5,937C 1799.56,937.743 1797.73,937.576 1796,936.5C 1795.31,935.668 1795.48,935.002 1796.5,934.5C 1797.62,936.289 1798.96,936.622 1800.5,935.5C 1799.09,934.376 1797.59,933.376 1796,932.5C 1795.42,931.072 1795.59,929.738 1796.5,928.5 Z"/></g>
<g><path style="opacity:1" fill="#f0e3ce" d="M 1863.5,928.5 C 1864.76,929.514 1865.43,931.014 1865.5,933C 1865.17,934.5 1864.83,936 1864.5,937.5C 1863.52,934.572 1863.18,931.572 1863.5,928.5 Z"/></g>
<g><path style="opacity:1" fill="#ede8de" d="M 128.5,928.5 C 131.011,928.838 133.345,928.838 135.5,928.5C 136.659,932.122 136.825,935.789 136,939.5C 133.215,943.413 130.382,943.413 127.5,939.5C 127.833,939.167 128.167,938.833 128.5,938.5C 132.078,941.592 133.911,940.925 134,936.5C 132,937.833 130,937.833 128,936.5C 127.278,933.739 127.445,931.073 128.5,928.5 Z"/></g>
<g><path style="opacity:1" fill="#676e8b" d="M 129.5,930.5 C 135.175,930.86 135.842,932.86 131.5,936.5C 129.717,934.977 129.051,932.977 129.5,930.5 Z"/></g>
<g><path style="opacity:1" fill="#606683" d="M 1699.5,930.5 C 1700.83,930.5 1702.17,930.5 1703.5,930.5C 1703.5,932.167 1703.5,933.833 1703.5,935.5C 1699.07,936.078 1697.73,934.411 1699.5,930.5 Z"/></g>
<g><path style="opacity:1" fill="#e1e9e9" d="M 1851.5,926.5 C 1852.8,927.108 1854.13,927.775 1855.5,928.5C 1856.67,928.081 1857.67,927.415 1858.5,926.5C 1859.72,927.646 1861.05,928.646 1862.5,929.5C 1861.68,930.386 1860.68,930.719 1859.5,930.5C 1859.1,933.044 1859.77,935.211 1861.5,937C 1860.22,937.684 1859.05,937.517 1858,936.5C 1857.5,934.527 1857.34,932.527 1857.5,930.5C 1856.17,930.5 1854.83,930.5 1853.5,930.5C 1853.1,933.044 1853.77,935.211 1855.5,937C 1854.22,937.684 1853.05,937.517 1852,936.5C 1851.03,933.087 1850.86,929.753 1851.5,926.5 Z"/></g>
<g><path style="opacity:1" fill="#ede8de" d="M 1878.5,928.5 C 1881.01,928.838 1883.34,928.838 1885.5,928.5C 1886.66,932.122 1886.83,935.789 1886,939.5C 1883.22,943.413 1880.38,943.413 1877.5,939.5C 1877.83,939.167 1878.17,938.833 1878.5,938.5C 1882.08,941.592 1883.91,940.925 1884,936.5C 1882,937.833 1880,937.833 1878,936.5C 1877.28,933.739 1877.44,931.073 1878.5,928.5 Z"/></g>
<g><path style="opacity:1" fill="#676e8b" d="M 1879.5,930.5 C 1885.18,930.86 1885.84,932.86 1881.5,936.5C 1879.72,934.977 1879.05,932.977 1879.5,930.5 Z"/></g>
<g><path style="opacity:1" fill="#eee9e3" d="M 1668.5,926.5 C 1671.12,926.232 1673.62,926.565 1676,927.5C 1676.83,931.836 1675,933.836 1670.5,933.5C 1670.76,934.978 1670.43,936.311 1669.5,937.5C 1668.51,933.893 1668.18,930.226 1668.5,926.5 Z"/></g>
<g><path style="opacity:1" fill="#606586" d="M 1670.5,927.5 C 1672.35,927.222 1673.68,927.889 1674.5,929.5C 1673.68,931.111 1672.35,931.778 1670.5,931.5C 1670.5,930.167 1670.5,928.833 1670.5,927.5 Z"/></g>
<g><path style="opacity:1" fill="#f0e6d9" d="M 117.5,928.5 C 125.23,927.143 127.563,930.143 124.5,937.5C 123.526,935.257 123.192,932.924 123.5,930.5C 122.167,930.5 120.833,930.5 119.5,930.5C 119.808,932.924 119.474,935.257 118.5,937.5C 117.516,934.572 117.183,931.572 117.5,928.5 Z"/></g>
<g><path style="opacity:1" fill="#69708b" d="M 168.5,932.5 C 169.833,932.5 171.167,932.5 172.5,932.5C 172.833,935.5 171.5,936.833 168.5,936.5C 168.5,935.167 168.5,933.833 168.5,932.5 Z"/></g>
<g><path style="opacity:1" fill="#eeefec" d="M 1764.5,928.5 C 1766.53,928.338 1768.53,928.505 1770.5,929C 1771.38,930.356 1771.71,931.856 1771.5,933.5C 1769.14,933.337 1766.81,933.503 1764.5,934C 1766.3,937.077 1768.3,937.243 1770.5,934.5C 1771.71,935.274 1771.71,936.107 1770.5,937C 1768.5,937.667 1766.5,937.667 1764.5,937C 1763.21,934.168 1763.21,931.335 1764.5,928.5 Z"/></g>
<g><path style="opacity:1" fill="#616581" d="M 1765.5,930.5 C 1766.98,930.238 1768.31,930.571 1769.5,931.5C 1768.83,931.833 1768.17,932.167 1767.5,932.5C 1766.29,932.253 1765.62,931.586 1765.5,930.5 Z"/></g>
<g><path style="opacity:1" fill="#e6e9e8" d="M 1833.5,926.5 C 1836.36,926.064 1838.7,926.897 1840.5,929C 1840,929.167 1839.5,929.333 1839,929.5C 1837.7,928.293 1836.2,927.626 1834.5,927.5C 1834.28,928.675 1834.61,929.675 1835.5,930.5C 1837.43,930.901 1838.93,931.901 1840,933.5C 1841.37,929.234 1844.2,927.734 1848.5,929C 1849.29,930.085 1849.96,931.252 1850.5,932.5C 1848.17,933.167 1845.83,933.833 1843.5,934.5C 1845,936.957 1846.67,936.957 1848.5,934.5C 1849.71,935.274 1849.71,936.107 1848.5,937C 1845.17,938.212 1842.67,937.379 1841,934.5C 1838.43,937.985 1835.59,938.318 1832.5,935.5C 1832.83,935.167 1833.17,934.833 1833.5,934.5C 1835.33,936.957 1837,936.957 1838.5,934.5C 1836.82,933.218 1834.99,932.218 1833,931.5C 1832.36,929.735 1832.53,928.068 1833.5,926.5 Z"/></g>
<g><path style="opacity:1" fill="#64637f" d="M 1843.5,930.5 C 1844.98,930.238 1846.31,930.571 1847.5,931.5C 1846.83,931.833 1846.17,932.167 1845.5,932.5C 1844.29,932.253 1843.62,931.586 1843.5,930.5 Z"/></g>
<g><path style="opacity:1" fill="#f0e6d9" d="M 1867.5,928.5 C 1875.23,927.143 1877.56,930.143 1874.5,937.5C 1873.53,935.257 1873.19,932.924 1873.5,930.5C 1872.17,930.5 1870.83,930.5 1869.5,930.5C 1869.81,932.924 1869.47,935.257 1868.5,937.5C 1867.52,934.572 1867.18,931.572 1867.5,928.5 Z"/></g>
<g><path style="opacity:1" fill="#dcdddf" d="M 51.5,926.5 C 52.675,926.281 53.675,926.614 54.5,927.5C 55.5451,930.806 56.8784,933.973 58.5,937C 56.6207,937.063 54.7873,936.563 53,935.5C 51.6349,935.844 50.4682,936.511 49.5,937.5C 48.8649,933.697 49.5315,930.03 51.5,926.5 Z"/></g>
<g><path style="opacity:1" fill="#e4e4df" d="M 69.5,928.5 C 71.5159,929.486 72.8492,931.153 73.5,933.5C 74.3567,932.264 75.0234,930.931 75.5,929.5C 76.365,928.417 77.365,928.251 78.5,929C 76.8042,931.587 75.8042,934.421 75.5,937.5C 74.1779,937.67 73.0113,937.337 72,936.5C 70.8644,933.904 70.031,931.237 69.5,928.5 Z"/></g>
<g><path style="opacity:1" fill="#e6f0f0" d="M 176.5,928.5 C 177.933,931.038 179.266,933.705 180.5,936.5C 181.086,936.291 181.586,935.957 182,935.5C 182.186,933.1 182.686,930.766 183.5,928.5C 184.484,931.428 184.817,934.428 184.5,937.5C 181.881,937.768 179.381,937.435 177,936.5C 176.503,933.854 176.336,931.187 176.5,928.5 Z"/></g>
<g><path style="opacity:1" fill="#e8e5de" d="M 1716.5,928.5 C 1717.5,928.414 1718.33,928.748 1719,929.5C 1720.33,936.167 1721.67,936.167 1723,929.5C 1723.89,928.289 1724.73,928.289 1725.5,929.5C 1724.03,933.779 1722.03,937.779 1719.5,941.5C 1719.45,939.43 1719.28,937.097 1719,934.5C 1717.68,932.713 1716.85,930.713 1716.5,928.5 Z"/></g>
<g><path style="opacity:1" fill="#eee8db" d="M 66.5,925.5 C 67.7943,927.048 68.4609,929.048 68.5,931.5C 68.1667,933.5 67.8333,935.5 67.5,937.5C 65.3284,937.324 62.9951,937.157 60.5,937C 59.3977,934.599 59.231,932.099 60,929.5C 62,928.167 64,928.167 66,929.5C 66.49,928.207 66.6567,926.873 66.5,925.5 Z"/></g>
<g><path style="opacity:1" fill="#676e8b" d="M 61.5,930.5 C 67.1755,930.86 67.8421,932.86 63.5,936.5C 61.7175,934.977 61.0508,932.977 61.5,930.5 Z"/></g>
<g><path style="opacity:1" fill="#efeeec" d="M 80.5,928.5 C 84.8514,927.533 87.1847,929.2 87.5,933.5C 85.076,933.192 82.7427,933.526 80.5,934.5C 82.3591,937.019 84.3591,937.019 86.5,934.5C 87.7112,935.274 87.7112,936.107 86.5,937C 78.749,938.091 76.749,935.258 80.5,928.5 Z"/></g>
<g><path style="opacity:1" fill="#686a8a" d="M 81.5,930.5 C 82.9778,930.238 84.3112,930.571 85.5,931.5C 83.9255,932.631 82.2588,932.798 80.5,932C 81.056,931.617 81.3893,931.117 81.5,930.5 Z"/></g>
<g><path style="opacity:1" fill="#efeeec" d="M 210.5,928.5 C 214.851,927.533 217.185,929.2 217.5,933.5C 215.076,933.192 212.743,933.526 210.5,934.5C 212.359,937.019 214.359,937.019 216.5,934.5C 217.711,935.274 217.711,936.107 216.5,937C 208.749,938.091 206.749,935.258 210.5,928.5 Z"/></g>
<g><path style="opacity:1" fill="#686a8a" d="M 211.5,930.5 C 212.978,930.238 214.311,930.571 215.5,931.5C 213.926,932.631 212.259,932.798 210.5,932C 211.056,931.617 211.389,931.117 211.5,930.5 Z"/></g>
<g><path style="opacity:1" fill="#eae7df" d="M 1686.5,929.5 C 1687.21,928.596 1688.21,928.263 1689.5,928.5C 1690.68,935.448 1692.02,935.781 1693.5,929.5C 1694.36,928.226 1695.03,928.392 1695.5,930C 1695,933.017 1693.67,935.517 1691.5,937.5C 1689.81,934.816 1688.14,932.149 1686.5,929.5 Z"/></g>
</svg>
